<?xml version="1.0" encoding="UTF-8"?>
<svg version="1.1" xmlns="http://www.w3.org/2000/svg" width="32" height="35">
<path d="M0 0 C165 0 330 0 500 0 C500 165 500 330 500 500 C335 500 170 500 0 500 C0 335 0 170 0 0 Z " fill="#FEFEFE" transform="translate(0,0)"/>
<path d="M0 0 C109.89 0 219.78 0 333 0 C333 82.5 333 165 333 250 C223.11 250 113.22 250 0 250 C-1.14992964 247.70014072 -1.11903844 246.43713153 -1.10743046 243.88079643 C-1.10593683 243.01265942 -1.10444321 242.1445224 -1.10290432 241.2500782 C-1.09610181 240.29122152 -1.0892993 239.33236485 -1.08229065 238.3444519 C-1.07907303 237.33247742 -1.07585541 236.32050293 -1.07254028 235.27786255 C-1.06041272 231.85431255 -1.04101787 228.43084085 -1.02172852 225.00732422 C-1.01140664 222.5240299 -1.00152734 220.0407337 -0.99205685 217.55743599 C-0.96809456 211.56392436 -0.93959567 205.57045019 -0.90896895 199.57697023 C-0.87378028 192.64711398 -0.8450244 185.71723946 -0.81628418 178.78735352 C-0.73718011 160.48321112 -0.6492996 142.17910752 -0.5625 123.875 C-0.376875 82.99625 -0.19125 42.1175 0 0 Z " fill="#F1F1F1" transform="translate(95,91)"/>
<path d="M0 0 C0.97348389 0.21881836 1.94696777 0.43763672 2.94995117 0.66308594 C20.21822293 5.24833072 29.79331504 10.67634095 38.8125 26.125 C39.56369338 27.4653532 40.3095016 28.80874049 41.04956055 30.15527344 C41.58279434 31.11114853 41.58279434 31.11114853 42.12680054 32.08633423 C43.08649032 33.83929544 43.99770691 35.61854456 44.90551758 37.39892578 C46.85982782 40.3716001 46.85982782 40.3716001 50.7409668 40.87841797 C52.35418823 40.93860107 52.35418823 40.93860107 54 41 C54.185625 39.8553125 54.185625 39.8553125 54.375 38.6875 C55 36 55 36 57 33 C56.65262237 29.61306808 55.64599285 26.96278714 54 24 C54.886875 24.66 55.77375 25.32 56.6875 26 C60.40405154 28.19820427 63.17898903 28.07494312 67.4375 27.8125 C72.42843897 27.62829003 74.93728431 28.01501616 78.75 31.3125 C81.87852107 34.44759359 82.8743029 36.71788962 83.3125 41.1875 C82.88161832 46.44425649 81.4705505 50.81686503 77.421875 54.39453125 C73.26484423 57.04417023 69.81709911 57.4460277 65 57 C63.78570312 56.64421875 63.78570312 56.64421875 62.546875 56.28125 C59.95201762 55.73298308 59.95201762 55.73298308 57.8671875 57.29296875 C57.20976562 57.91816406 56.55234375 58.54335937 55.875 59.1875 C55.21242188 59.79980469 54.54984375 60.41210938 53.8671875 61.04296875 C51.19460478 63.83754805 51.19460478 63.83754805 49 67 C49.47004169 70.17799947 50.75700854 72.54663527 52.40625 75.2734375 C53.14536621 76.50151123 53.14536621 76.50151123 53.89941406 77.75439453 C54.6917041 79.05159424 54.6917041 79.05159424 55.5 80.375 C56.03592773 81.26171387 56.57185547 82.14842773 57.12402344 83.06201172 C61.10123664 89.6122287 65.21648968 96.06031246 69.453125 102.4453125 C71 105 71 105 71 107 C76.61 107 82.22 107 88 107 C88 107.33 88 107.66 88 108 C63.10451003 108.15400333 38.20899073 108.30203365 13.31342316 108.4429636 C1.75385184 108.50853963 -9.80570192 108.57606629 -21.36523438 108.64819336 C-31.44112415 108.71105811 -41.51702767 108.77025444 -51.59296465 108.82505554 C-56.92751128 108.85419697 -62.26203306 108.88516865 -67.59654236 108.92053413 C-72.61969753 108.95377749 -77.64285669 108.98210789 -82.6660614 109.00670624 C-84.50747737 109.01658302 -86.3488848 109.02823906 -88.1902771 109.04183006 C-90.70981963 109.06015693 -93.22931498 109.07200326 -95.74890137 109.08229065 C-96.83454038 109.09249633 -96.83454038 109.09249633 -97.94211149 109.10290819 C-102.7231604 109.11332818 -107.27778657 108.67066996 -112 108 C-111.01 107.01 -111.01 107.01 -110 106 C-110.825 105.21625 -111.65 104.4325 -112.5 103.625 C-115.48030761 100.04183814 -115.66264002 96.95862099 -115.4296875 92.40234375 C-114.58870486 87.70048629 -111.62816246 83.99717768 -108 81 C-105.24489615 80.08163205 -103.47683812 79.83683309 -100.625 79.8125 C-99.87476563 79.79832031 -99.12453125 79.78414063 -98.3515625 79.76953125 C-95.62292253 80.0369561 -93.5177642 80.94540215 -91 82 C-84.46716689 76.07310454 -79.714511 69.54824595 -75 62.125 C-74.32066406 61.08085937 -73.64132813 60.03671875 -72.94140625 58.9609375 C-69.47807737 54.32123965 -69.47807737 54.32123965 -68 49 C-68.56847656 49.15984375 -69.13695312 49.3196875 -69.72265625 49.484375 C-74.67449463 50.60554595 -79.38983712 50.77153638 -84 48.5625 C-86.96482412 46.24623116 -86.96482412 46.24623116 -87.375 43.375 C-86.75523411 37.79710701 -83.92960853 34.60016317 -79.7578125 31.140625 C-74.63822758 27.40859113 -69.13455412 23.79805897 -63 22 C-62.34 22.33 -61.68 22.66 -61 23 C-65.845139 29.79739281 -65.845139 29.79739281 -70.5625 30.625 C-71.696875 30.74875 -72.83125 30.8725 -74 31 C-77.12172918 33.4430924 -78.70747434 34.98741118 -79.8125 38.8125 C-79.874375 39.534375 -79.93625 40.25625 -80 41 C-68.80710235 42.29148819 -60.07248248 35.26664143 -51.47167969 28.94238281 C-46.6872646 25.43484566 -41.75469584 22.27734094 -36.68701172 19.19702148 C-32.31773215 16.51613329 -28.07380948 13.6965696 -23.859375 10.77734375 C-22.25328369 9.67350342 -22.25328369 9.67350342 -20.61474609 8.54736328 C-18.48288836 7.07675094 -16.3604614 5.59235664 -14.24853516 4.09326172 C-13.26675293 3.41924316 -12.2849707 2.74522461 -11.2734375 2.05078125 C-10.40122559 1.43887939 -9.52901367 0.82697754 -8.63037109 0.1965332 C-5.2439291 -1.34393016 -3.56661035 -0.91672027 0 0 Z " fill="#0D7FD3" transform="translate(266,165)"/>
<path d="M0 0 C0.96824707 0.21358154 1.93649414 0.42716309 2.93408203 0.6472168 C20.53454252 5.23955299 30.0132128 11.06627705 39.375 26.625 C40.18268468 28.01337051 40.9850492 29.40485136 41.78173828 30.79956055 C42.16199158 31.459767 42.54224487 32.11997345 42.934021 32.80018616 C43.6417493 34.05163688 44.32724309 35.31602029 44.98590088 36.59397888 C46.00127561 38.54533083 46.00127561 38.54533083 48 41 C51.13004657 41.99161553 51.13004657 41.99161553 54 42 C54 43.65 54 45.3 54 47 C52.68 47.33 51.36 47.66 50 48 C50 48.66 50 49.32 50 50 C51.98 50 53.96 50 56 50 C55.34 50.99 54.68 51.98 54 53 C53.01 53 52.02 53 51 53 C50.93554688 53.57492188 50.87109375 54.14984375 50.8046875 54.7421875 C49.66904436 57.9286037 47.79377754 59.07616512 45.125 61.125 C40.87711765 64.47097286 36.79400683 67.90371168 32.8125 71.5625 C31.89082031 72.40941406 30.96914063 73.25632812 30.01953125 74.12890625 C29.01986328 75.05509766 29.01986328 75.05509766 28 76 C17.70759407 72.71644274 17.70759407 72.71644274 14 69 C13.04912742 65.96941147 12.8897732 63.16213124 13 60 C11.82997042 62.34005915 11.96770245 63.77758945 11.9375 66.375 C11.65638206 69.28457072 11.53139776 70.53807396 9.296875 72.48046875 C5.57902193 74.38758967 3.2584764 75 -1 75 C-3.16130072 73.2478344 -5.09250326 71.50941313 -7.0625 69.5625 C-8.21499287 68.4583692 -9.36998146 67.35683805 -10.52734375 66.2578125 C-11.10597168 65.70770508 -11.68459961 65.15759766 -12.28076172 64.59082031 C-15.62705335 61.49447889 -19.19309246 58.6799842 -22.7578125 55.83984375 C-26.37129398 52.87477445 -28.19659407 51.13304172 -29.4375 46.5625 C-30.89827573 41.87584452 -32.76306119 39.59781344 -36.75 36.75 C-40.19195867 35.60268044 -43.44737256 35.44554369 -47 36 C-51.39394566 38.23842515 -54.03785264 40.45607979 -56 45 C-56.020625 46.2375 -56.04125 47.475 -56.0625 48.75 C-56.57109801 54.06534786 -60.17861142 56.44566637 -64.09375 59.69140625 C-65.0528125 60.45324219 -66.011875 61.21507812 -67 62 C-68.46953125 63.22009766 -68.46953125 63.22009766 -69.96875 64.46484375 C-73.91294587 67.73576963 -77.87971102 70.95290257 -82 74 C-80.72802138 70.55992741 -79.25736851 67.66311953 -77.1796875 64.64453125 C-76.64472656 63.85755859 -76.10976562 63.07058594 -75.55859375 62.25976562 C-75.00300781 61.45216797 -74.44742188 60.64457031 -73.875 59.8125 C-72.76402983 58.19689006 -71.65704139 56.57853244 -70.5546875 54.95703125 C-70.06468262 54.24522705 -69.57467773 53.53342285 -69.06982422 52.80004883 C-67.82969741 51.06244939 -67.82969741 51.06244939 -68 49 C-68.56847656 49.15984375 -69.13695312 49.3196875 -69.72265625 49.484375 C-74.67449463 50.60554595 -79.38983712 50.77153638 -84 48.5625 C-86.96482412 46.24623116 -86.96482412 46.24623116 -87.375 43.375 C-86.75523411 37.79710701 -83.92960853 34.60016317 -79.7578125 31.140625 C-74.63822758 27.40859113 -69.13455412 23.79805897 -63 22 C-62.34 22.33 -61.68 22.66 -61 23 C-65.845139 29.79739281 -65.845139 29.79739281 -70.5625 30.625 C-71.696875 30.74875 -72.83125 30.8725 -74 31 C-77.12172918 33.4430924 -78.70747434 34.98741118 -79.8125 38.8125 C-79.874375 39.534375 -79.93625 40.25625 -80 41 C-68.80710235 42.29148819 -60.07248248 35.26664143 -51.47167969 28.94238281 C-46.6872646 25.43484566 -41.75469584 22.27734094 -36.68701172 19.19702148 C-32.31773215 16.51613329 -28.07380948 13.6965696 -23.859375 10.77734375 C-22.25328369 9.67350342 -22.25328369 9.67350342 -20.61474609 8.54736328 C-18.48288836 7.07675094 -16.3604614 5.59235664 -14.24853516 4.09326172 C-13.26675293 3.41924316 -12.2849707 2.74522461 -11.2734375 2.05078125 C-10.40122559 1.43887939 -9.52901367 0.82697754 -8.63037109 0.1965332 C-5.24501317 -1.34343702 -3.56556261 -0.91453995 0 0 Z " fill="#343436" transform="translate(266,165)"/>
<path d="M0 0 C3.92347204 1.61609681 6.71414265 4.31315007 9.75 7.1875 C10.81831803 8.1843363 11.88732954 9.18042991 12.95703125 10.17578125 C13.47604004 10.65998535 13.99504883 11.14418945 14.52978516 11.64306641 C16.46399264 13.42824163 18.44479053 15.1555764 20.4375 16.875 C23.42876093 19.4665935 26.24508726 22.15899624 29 25 C28.68933594 25.69222656 28.37867188 26.38445312 28.05859375 27.09765625 C26.90374568 30.26390022 26.41369992 33.08728951 26.0625 36.4375 C25.92972656 37.52933594 25.79695313 38.62117188 25.66015625 39.74609375 C26.0181734 43.17400504 26.78340677 45.13376839 29.07331848 47.72529602 C33.47967917 50.64057052 39.30511994 49.841282 44.39453125 49.8046875 C45.69702316 49.81839386 46.99951508 49.83210022 48.34147644 49.84622192 C51.79239226 49.88220311 55.24242118 49.88264122 58.69348145 49.87554932 C62.21964298 49.87463522 65.7454742 49.90751145 69.27148438 49.9375 C76.18103976 49.99130763 83.0902466 50.00755076 90 50 C89.68770762 44.96285129 89.68770762 44.96285129 86.93359375 41.03125 C86.10988281 40.5259375 85.28617188 40.020625 84.4375 39.5 C81.96875 37.77734375 81.96875 37.77734375 80 36 C79.4375 32.0625 79.4375 32.0625 80 29 C79.01 30.485 79.01 30.485 78 32 C73.26196591 33.13764529 67.55104223 34.16860609 62.99609375 32.08203125 C61.625 30.8125 61.625 30.8125 60 28 C60.12163471 24.88231041 60.99250259 24.00702483 63.29296875 21.8515625 C64.24816406 21.11679688 65.20335937 20.38203125 66.1875 19.625 C70.42578529 16.28624662 74.28996648 12.91057588 78 9 C78.99 9.495 78.99 9.495 80 10 C80.35124371 11.32872749 80.68138782 12.66307249 81 14 C81.75253349 15.45126563 82.5602082 16.87461948 83.40625 18.2734375 C84.14536621 19.50151123 84.14536621 19.50151123 84.89941406 20.75439453 C85.6917041 22.05159424 85.6917041 22.05159424 86.5 23.375 C87.03592773 24.26171387 87.57185547 25.14842773 88.12402344 26.06201172 C92.10123664 32.6122287 96.21648968 39.06031246 100.453125 45.4453125 C102 48 102 48 102 50 C107.61 50 113.22 50 119 50 C119 50.33 119 50.66 119 51 C58.94 51 -1.12 51 -63 51 C-61.35 49.02 -59.7 47.04 -58 45 C-55.5625 45.8125 -55.5625 45.8125 -53 47 C-52.67 47.99 -52.34 48.98 -52 50 C-35.83 50 -19.66 50 -3 50 C-10.47226838 40.47801348 -10.47226838 40.47801348 -18 31 C-18.390625 28.32421875 -18.390625 28.32421875 -18.25 25.6875 C-18.21390625 24.80449219 -18.1778125 23.92148438 -18.140625 23.01171875 C-18.09421875 22.34785156 -18.0478125 21.68398437 -18 21 C-23.81512934 22.12240548 -28.56765432 23.12791811 -32.8125 27.4375 C-37.15502835 31.74391585 -41.96287529 32.64060896 -47.828125 33.8828125 C-51.5667438 35.19961666 -52.8421007 36.74178572 -55 40 C-55.8652412 36.26188764 -56.33963453 32.83525761 -56 29 C-53.97214176 25.903143 -50.98382153 24.13130109 -48 22 C-45.67341123 20.08193431 -43.40184191 18.10166662 -41.125 16.125 C-39.91688667 15.09088875 -38.70855449 14.05703313 -37.5 13.0234375 C-32.93026347 9.09256216 -28.45275271 5.06288036 -24 1 C-23.52691406 1.3609375 -23.05382812 1.721875 -22.56640625 2.09375 C-18.06780827 5.25066087 -14.65846638 6.74996434 -9.1171875 6.43359375 C-5.78152931 5.7504608 -3.56039088 4.17633225 -1 2 C-0.67 1.34 -0.34 0.68 0 0 Z " fill="#343537" transform="translate(235,222)"/>
<path d="M0 0 C-0.00322266 0.62398682 -0.00644531 1.24797363 -0.00976562 1.89086914 C0.28728031 9.29950302 2.58652327 13.04936681 7.5 18.4375 C8.70121568 19.80831407 9.89928192 21.18189614 11.09375 22.55859375 C11.89329102 23.44502563 11.89329102 23.44502563 12.70898438 24.34936523 C14 26 14 26 15 29 C8.1134882 29.15221925 1.22741055 29.25724395 -5.66040039 29.32958984 C-8.00301322 29.35975015 -10.34551325 29.40068517 -12.68774414 29.45263672 C-16.05643541 29.52548101 -19.42363323 29.55946479 -22.79296875 29.5859375 C-23.83897751 29.61690521 -24.88498627 29.64787292 -25.96269226 29.67977905 C-33.10406263 29.68307932 -33.10406263 29.68307932 -35.80435181 27.62432861 C-37.20043945 25.96337891 -37.20043945 25.96337891 -39 23 C-37.4736778 19.19146271 -35.76541244 16.05065603 -33 13 C-29.50298775 11.58514601 -26.09494493 10.80588788 -22.4140625 9.99609375 C-18.06926685 8.72844742 -15.81538915 6.68477981 -12.66796875 3.55078125 C-8.91781494 0.06410429 -4.85956972 -0.0735061 0 0 Z " fill="#F0F0F0" transform="translate(217,243)"/>
<path d="M0 0 C0.33 0 0.66 0 1 0 C1.0270043 1.45823212 1.04639787 2.91660675 1.0625 4.375 C1.07410156 5.18710938 1.08570313 5.99921875 1.09765625 6.8359375 C1 9 1 9 0 11 C0.53625 11.226875 1.0725 11.45375 1.625 11.6875 C4.89641883 13.49538935 7.37744945 15.31784602 10 18 C10.171875 21.67578125 10.171875 21.67578125 10 25 C2.41136787 25.16251653 -5.17708291 25.28673236 -12.76706123 25.3626852 C-16.2919493 25.39914908 -19.81564307 25.44856446 -23.33984375 25.52807617 C-27.39594672 25.61901094 -31.45080459 25.6527092 -35.5078125 25.68359375 C-36.76739777 25.71972275 -38.02698303 25.75585175 -39.32473755 25.79307556 C-47.8449222 25.79689067 -47.8449222 25.79689067 -51.15376282 23.51411438 C-53.87463497 20.49764438 -54.91665758 18.70153277 -55.40234375 14.61328125 C-55.24894531 13.52402344 -55.09554688 12.43476563 -54.9375 11.3125 C-54.80214844 10.21550781 -54.66679687 9.11851562 -54.52734375 7.98828125 C-54.10901982 5.61777896 -53.6376282 3.31916098 -53 1 C-52.34 1 -51.68 1 -51 1 C-50.90203125 1.59167969 -50.8040625 2.18335938 -50.703125 2.79296875 C-49.74924491 7.83373164 -48.80029049 11.31148276 -45 15 C-40.74709119 17.52851511 -36.8366304 17.68015115 -32 17 C-27.53977773 14.76988887 -25.09840312 12.51156671 -23 8 C-22.27833809 5.68308546 -21.59940471 3.35151077 -21 1 C-20.071875 2.2065625 -20.071875 2.2065625 -19.125 3.4375 C-17.25835959 6.03874519 -17.25835959 6.03874519 -15 7 C-12.78861145 6.91188555 -10.57957815 6.7570216 -8.375 6.5625 C-7.18648438 6.46066406 -5.99796875 6.35882813 -4.7734375 6.25390625 C-3.85820312 6.17011719 -2.94296875 6.08632812 -2 6 C-1.34 4.02 -0.68 2.04 0 0 Z " fill="#EEEFEF" transform="translate(315,247)"/>
<path d="M0 0 C0.85980469 -0.01224609 1.71960938 -0.02449219 2.60546875 -0.03710938 C7.98386907 -0.04954019 11.96447987 0.36250405 16.5625 3.375 C18.44931306 6.25487257 17.9853688 8.83349461 17.75 12.1875 C17.440625 13.3321875 17.440625 13.3321875 17.125 14.5 C17.00125 15.056875 16.8775 15.61375 16.75 16.1875 C17.41 16.8475 18.07 17.5075 18.75 18.1875 C18.9375 20.2109375 18.9375 20.2109375 18.75 22.5625 C18.70875 23.33335937 18.6675 24.10421875 18.625 24.8984375 C17.58725377 27.61325575 16.25202294 28.94842908 13.76464844 30.44189453 C9.46994679 32.03132968 4.8866043 31.58885705 0.375 31.4375 C-0.64722656 31.41945313 -1.66945313 31.40140625 -2.72265625 31.3828125 C-5.23274749 31.33589491 -7.74087764 31.27026729 -10.25 31.1875 C-10.27465622 26.93335377 -10.29283899 22.67924502 -10.30493164 18.42504883 C-10.30997101 16.97679927 -10.31680253 15.52855483 -10.32543945 14.08032227 C-10.33752247 12.00275412 -10.34323211 9.92525303 -10.34765625 7.84765625 C-10.35289307 6.59605713 -10.35812988 5.34445801 -10.36352539 4.05493164 C-10.12984346 -1.84742154 -4.76391828 0.00350804 0 0 Z " fill="#09273A" transform="translate(298.25,307.8125)"/>
<path d="M0 0 C3.67736853 0.84658844 6.27293013 2.07448283 8.66015625 5.11328125 C10.35893433 8.77333082 10.47764181 12.04420673 10.4375 16 C10.4674707 17.04800781 10.4674707 17.04800781 10.49804688 18.1171875 C10.49471524 21.648724 10.10311906 23.82711703 8.28515625 26.875 C3.36292659 31.45225288 -1.65695002 31.43149164 -8.11328125 31.3203125 C-12.25502367 30.86074162 -13.98877324 29.85274114 -17 27 C-19.51276138 23.31403296 -19.40212569 19.37423482 -19.4375 15.0625 C-19.47037109 14.35931641 -19.50324219 13.65613281 -19.53710938 12.93164062 C-19.57798975 8.96624445 -19.18695331 7.23002436 -16.66015625 4.12109375 C-10.93522834 -0.44371661 -7.15545562 -0.6395938 0 0 Z " fill="#052437" transform="translate(144,308)"/>
<path d="M0 0 C3.3 0 6.6 0 10 0 C10.33 6.93 10.66 13.86 11 21 C12.65 21 14.3 21 16 21 C16.33 14.07 16.66 7.14 17 0 C20.3 0 23.6 0 27 0 C29.41039182 2.41039182 28.28167258 8.4547315 28.3125 11.6875 C28.34150391 12.68201172 28.37050781 13.67652344 28.40039062 14.70117188 C28.45131748 20.58909942 28.25289249 24.51526329 24 29 C18.78361624 31.96365974 12.82188426 31.64600069 7 31 C3.78834764 29.80867962 1.70738904 28.13380224 -0.1340332 25.18237305 C-1.16174973 22.59236515 -1.24325357 20.61486076 -1.23046875 17.83203125 C-1.22853516 16.85685547 -1.22660156 15.88167969 -1.22460938 14.87695312 C-1.21236328 13.86568359 -1.20011719 12.85441406 -1.1875 11.8125 C-1.18685547 10.78962891 -1.18621094 9.76675781 -1.18554688 8.71289062 C-1.14032251 1.14032251 -1.14032251 1.14032251 0 0 Z " fill="#0A283B" transform="translate(322,308)"/>
<path d="M0 0 C0.66 0.33 1.32 0.66 2 1 C2.35124371 2.32872749 2.68138782 3.66307249 3 5 C3.75253349 6.45126563 4.5602082 7.87461948 5.40625 9.2734375 C6.14536621 10.50151123 6.14536621 10.50151123 6.89941406 11.75439453 C7.42760742 12.61919434 7.95580078 13.48399414 8.5 14.375 C9.03592773 15.26171387 9.57185547 16.14842773 10.12402344 17.06201172 C14.10123664 23.6122287 18.21648968 30.06031246 22.453125 36.4453125 C24 39 24 39 24 41 C29.61 41 35.22 41 41 41 C41 41.33 41 41.66 41 42 C11.96 42 -17.08 42 -47 42 C-47 41.67 -47 41.34 -47 41 C-27.53 41 -8.06 41 12 41 C11.78597899 34.34202143 11.78597899 34.34202143 8.93359375 32.03125 C8.10988281 31.5259375 7.28617187 31.020625 6.4375 30.5 C3.96875 28.77734375 3.96875 28.77734375 2 27 C1.4375 23.0625 1.4375 23.0625 2 20 C1.34 20.99 0.68 21.98 0 23 C-4.73803409 24.13764529 -10.44895777 25.16860609 -15.00390625 23.08203125 C-16.375 21.8125 -16.375 21.8125 -18 19 C-17.87836529 15.88231041 -17.00749741 15.00702483 -14.70703125 12.8515625 C-13.75183594 12.11679688 -12.79664063 11.38203125 -11.8125 10.625 C-7.57421471 7.28624662 -3.71003352 3.91057588 0 0 Z " fill="#3D3E40" transform="translate(313,231)"/>
<path d="M0 0 C4.1599026 2.73944805 4.1599026 2.73944805 5.5625 4.6875 C5.5625 6.0075 5.5625 7.3275 5.5625 8.6875 C3.81284642 8.74179959 2.06270213 8.78042823 0.3125 8.8125 C-0.66203125 8.83570313 -1.6365625 8.85890625 -2.640625 8.8828125 C-5.4571498 8.68612781 -7.04699036 8.13318916 -9.4375 6.6875 C-9.4375 7.6775 -9.4375 8.6675 -9.4375 9.6875 C-8.77363281 9.72488281 -8.10976562 9.76226562 -7.42578125 9.80078125 C1.5738227 10.47082476 1.5738227 10.47082476 5.5625 13.6875 C7.17214787 16.90679573 7.16936242 20.20637712 6.5625 23.6875 C4.02796343 26.90704645 2.44952695 28.39182435 -1.4375 29.6875 C-14.94943579 30.86245094 -14.94943579 30.86245094 -19.25 27.5 C-21.48159758 24.63080311 -21.89277723 23.17255425 -22.4375 19.6875 C-16.03120576 19.47897686 -10.50777358 19.5291805 -4.4375 21.6875 C-4.7675 21.0275 -5.0975 20.3675 -5.4375 19.6875 C-7.35905793 19.1845809 -9.30121116 18.75910227 -11.25 18.375 C-15.1200447 17.45465643 -17.11025801 16.96268077 -20.1875 14.375 C-21.73439293 11.04918019 -22.10359665 9.31402621 -21.4375 5.6875 C-16.56967976 -2.30167062 -8.33710105 -3.18325677 0 0 Z " fill="#09273A" transform="translate(179.4375,309.3125)"/>
<path d="M0 0 C2.84625 -0.061875 5.6925 -0.12375 8.625 -0.1875 C9.51010254 -0.21481201 10.39520508 -0.24212402 11.30712891 -0.27026367 C17.196014 -0.33189616 21.0790543 0.76451936 25.84765625 4.4140625 C27.78727751 7.08350736 27.46340198 9.57980912 27.359375 12.7734375 C26.82741775 16.06925959 25.42836659 17.77977911 23 20 C20.11788698 20.96070434 18.30149956 21.10581883 15.3125 21.0625 C13.889375 21.041875 12.46625 21.02125 11 21 C11 24.3 11 27.6 11 31 C7.37 31 3.74 31 0 31 C0 20.77 0 10.54 0 0 Z " fill="#062538" transform="translate(94,308)"/>
<path d="M0 0 C2.6624203 1.72429702 4.12579702 3.56564866 5.88671875 6.20703125 C6.01171875 8.89453125 6.01171875 8.89453125 5.88671875 11.20703125 C4.09578684 11.28789272 2.30382247 11.34615827 0.51171875 11.39453125 C-0.98488281 11.44673828 -0.98488281 11.44673828 -2.51171875 11.5 C-3.37023437 11.40332031 -4.22875 11.30664062 -5.11328125 11.20703125 C-5.77328125 10.21703125 -6.43328125 9.22703125 -7.11328125 8.20703125 C-8.43328125 8.53703125 -9.75328125 8.86703125 -11.11328125 9.20703125 C-11.11328125 12.83703125 -11.11328125 16.46703125 -11.11328125 20.20703125 C-9.79328125 20.53703125 -8.47328125 20.86703125 -7.11328125 21.20703125 C-6.45328125 20.21703125 -5.79328125 19.22703125 -5.11328125 18.20703125 C-2.51171875 17.9140625 -2.51171875 17.9140625 0.51171875 18.01953125 C2.01605469 18.06013672 2.01605469 18.06013672 3.55078125 18.1015625 C4.32164062 18.13636719 5.0925 18.17117188 5.88671875 18.20703125 C5.72302273 22.38127988 5.23051999 24.73177659 2.76171875 28.14453125 C-2.49386726 32.00290049 -10.00490484 31.06707981 -16.11328125 30.20703125 C-19.0992447 28.85770412 -20.03050946 27.84112499 -22.11328125 25.20703125 C-23.33119234 21.55329797 -23.374328 18.13957139 -23.42578125 14.33203125 C-23.45478516 13.62433594 -23.48378906 12.91664063 -23.51367188 12.1875 C-23.55747165 8.56896492 -23.25046706 6.43052601 -21.34375 3.32421875 C-15.76532153 -1.97089199 -7.20211279 -2.70245637 0 0 Z " fill="#072539" transform="translate(278.11328125,308.79296875)"/>
<path d="M0 0 C9.24 0 18.48 0 28 0 C28 3.3 28 6.6 28 10 C25.36 10 22.72 10 20 10 C20 16.93 20 23.86 20 31 C11.50390625 31.09765625 11.50390625 31.09765625 9 31 C8 30 8 30 7.88647461 28.05053711 C7.89432983 26.8015564 7.89432983 26.8015564 7.90234375 25.52734375 C7.90556641 24.62822266 7.90878906 23.72910156 7.91210938 22.80273438 C7.92048828 21.85720703 7.92886719 20.91167969 7.9375 19.9375 C7.94201172 18.98810547 7.94652344 18.03871094 7.95117188 17.06054688 C7.9629989 14.70696935 7.97947975 12.35351523 8 10 C6.2984375 10.0309375 6.2984375 10.0309375 4.5625 10.0625 C1 10 1 10 0 9 C0 6.03 0 3.06 0 0 Z " fill="#102D40" transform="translate(206,308)"/>
<path d="M0 0 C3.63 0 7.26 0 11 0 C11 7.26 11 14.52 11 22 C15.62 22 20.24 22 25 22 C25 24.97 25 27.94 25 31 C16.75 31 8.5 31 0 31 C0 20.77 0 10.54 0 0 Z " fill="#072539" transform="translate(355,308)"/>
<path d="M0 0 C6.17791452 -0.2206398 9.57281654 0.39320413 16 2 C17.65 10.91 19.3 19.82 21 29 C12 29 12 29 9.25 26.6875 C8.5075 25.800625 7.765 24.91375 7 24 C6.18789062 23.55914062 5.37578125 23.11828125 4.5390625 22.6640625 C0.07274835 19.73690892 -1.40556635 14.94628752 -3 10 C-2.92877653 6.08270931 -1.94638629 3.37373623 0 0 Z " fill="#EFEFEF" transform="translate(233,243)"/>
<path d="M0 0 C3.3 0 6.6 0 10 0 C11 1 11 1 11.11352539 3.04125977 C11.10828857 3.91580811 11.10305176 4.79035645 11.09765625 5.69140625 C11.09443359 6.63564453 11.09121094 7.57988281 11.08789062 8.55273438 C11.07951172 9.54595703 11.07113281 10.53917969 11.0625 11.5625 C11.05798828 12.55958984 11.05347656 13.55667969 11.04882812 14.58398438 C11.03700023 17.05601487 11.01906415 19.52801472 11 22 C15.29 22 19.58 22 24 22 C24 24.97 24 27.94 24 31 C16.08 31 8.16 31 0 31 C0 20.77 0 10.54 0 0 Z " fill="#062438" transform="translate(384,308)"/>
<path d="M0 0 C3.63 0 7.26 0 11 0 C11 10.23 11 20.46 11 31 C7.37 31 3.74 31 0 31 C0 20.77 0 10.54 0 0 Z " fill="#052337" transform="translate(239,308)"/>
<path d="M0 0 C3.63 0 7.26 0 11 0 C11 10.23 11 20.46 11 31 C7.37 31 3.74 31 0 31 C0 20.77 0 10.54 0 0 Z " fill="#052337" transform="translate(191,308)"/>
<path d="M0 0 C0.33 0.66 0.66 1.32 1 2 C0.34 2 -0.32 2 -1 2 C-3.59227518 6.86051596 -3.18689553 11.65271133 -3 17 C-2.18015625 17.08636719 -1.3603125 17.17273438 -0.515625 17.26171875 C8.27652174 18.40806324 8.27652174 18.40806324 11.75 21.25 C13.18059469 24.39730833 13.31815812 26.57980018 13 30 C4.04894 30.61262008 -3.61293379 29.76034246 -10.625 23.75 C-12.48698916 20.02602167 -12.94503736 17.0092494 -12 13 C-9.18488952 7.13840011 -5.68227153 3.11172013 0 0 Z " fill="#E7E7E7" transform="translate(276,188)"/>
<path d="M0 0 C2.43826648 2.12699842 3.66167426 3.20723808 5 6 C5.14971147 10.34163268 4.72194213 12.19555019 1.8125 15.4375 C-1.56275179 17.31263988 -3.2007634 17.71235686 -7 17 C-10.62652055 14.39836569 -11.82303105 12.90093281 -12.6875 8.5 C-12 5 -12 5 -9.375 2.0625 C-5.68631961 -0.19169357 -4.2037312 -0.98385198 0 0 Z " fill="#31353A" transform="translate(227,206)"/>
<path d="M0 0 C4.21796616 0.86080942 6.17690429 2.46458565 9.0625 5.625 C9.69417588 9.49401475 9.36103304 12.40705375 7.0625 15.625 C3.84455375 17.92353304 0.93151475 18.25667588 -2.9375 17.625 C-6.09791435 14.73940429 -7.70169058 12.78046616 -8.5625 8.5625 C-7.51095594 3.62024293 -4.94225707 1.05154406 0 0 Z " fill="#EAEEF1" transform="translate(277.9375,241.375)"/>
<path d="M0 0 C3.73785618 0.70084803 5.39432914 1.80793366 8 4.5625 C9.0625 6.875 9.0625 6.875 9 9.5625 C7.86516257 12.08436097 6.51163056 14.22634368 5 16.5625 C1.94709737 16.85604833 -0.95457539 16.97659388 -4 16.5625 C-7.06018871 14.02478253 -7.83450185 12.44515681 -8.5625 8.5625 C-7.62098494 3.54108633 -5.02141367 0.94151506 0 0 Z " fill="#EAEEF0" transform="translate(165,250.4375)"/>
<path d="M0 0 C4.01686987 -0.46707789 5.56501812 -0.32150834 8.875 2.125 C11 5 11 5 11.5625 8 C10.8491179 11.80470451 9.88381579 13.41196019 7 16 C0.93023256 17.46511628 0.93023256 17.46511628 -2 16 C-0.125 11.25 -0.125 11.25 1 9 C1.14375422 5.62177584 1.07536348 3.22609045 0 0 Z " fill="#E6EBEF" transform="translate(332,199)"/>
<path d="M0 0 C2.3610284 3.61098461 1.80632176 5.88381202 1 10 C-1.14576637 10.02685938 -3.29162645 10.04633088 -5.4375 10.0625 C-6.63246094 10.07410156 -7.82742187 10.08570313 -9.05859375 10.09765625 C-12 10 -12 10 -13 9 C-13.04063832 7.33382885 -13.042721 5.66611905 -13 4 C-12.34 3.67 -11.68 3.34 -11 3 C-11 3.99 -11 4.98 -11 6 C-10.34 6 -9.68 6 -9 6 C-8.67 5.01 -8.34 4.02 -8 3 C-5.29120665 1.64560332 -2.99066732 1.93498549 0 2 C0 1.34 0 0.68 0 0 Z " fill="#70B5E7" transform="translate(209,352)"/>
<path d="M0 0 C3.53571429 0.53571429 3.53571429 0.53571429 5 2 C5.12487758 3.80927281 5.17570846 5.62396107 5.1875 7.4375 C5.20167969 8.42621094 5.21585938 9.41492188 5.23046875 10.43359375 C5 13 5 13 3 15 C-0.53571429 14.46428571 -0.53571429 14.46428571 -2 13 C-2.12487758 11.19072719 -2.17570846 9.37603893 -2.1875 7.5625 C-2.20167969 6.57378906 -2.21585938 5.58507812 -2.23046875 4.56640625 C-2 2 -2 2 0 0 Z " fill="#DBDEE0" transform="translate(138,316)"/>
<path d="M0 0 C2.4375 0.8125 2.4375 0.8125 5 2 C5.33 2.99 5.66 3.98 6 5 C22.5 4.67 39 4.34 56 4 C56 4.66 56 5.32 56 6 C35.87 6 15.74 6 -5 6 C-3.35 4.02 -1.7 2.04 0 0 Z " fill="#797979" transform="translate(177,267)"/>
<path d="M0 0 C2.43291092 1.82468319 2.96214622 2.7566543 3.4375 5.8125 C2.90005255 9.72818857 1.37101554 11.8880421 -1 15 C-1.66 14.34 -2.32 13.68 -3 13 C-2.34 11.68 -1.68 10.36 -1 9 C-2.98 9.99 -2.98 9.99 -5 11 C-5.3125 8.3125 -5.3125 8.3125 -5 5 C-2.5 2.125 -2.5 2.125 0 0 Z " fill="#32373D" transform="translate(331,199)"/>
<path d="M0 0 C0.66 0.33 1.32 0.66 2 1 C-2.77899344 7.70459519 -2.77899344 7.70459519 -7.875 8.9375 C-8.90625 8.958125 -9.9375 8.97875 -11 9 C-11.33 8.01 -11.66 7.02 -12 6 C-10.04669132 4.96958487 -8.08718472 3.9509107 -6.125 2.9375 C-5.03445312 2.36902344 -3.94390625 1.80054688 -2.8203125 1.21484375 C-1.42425781 0.61349609 -1.42425781 0.61349609 0 0 Z " fill="#3D3D3F" transform="translate(203,187)"/>
<path d="M0 0 C0.99 0 1.98 0 3 0 C3.66 0.99 4.32 1.98 5 3 C5.33 2.01 5.66 1.02 6 0 C6.66 0 7.32 0 8 0 C8 3.3 8 6.6 8 10 C7.34 9.34 6.68 8.68 6 8 C5.34 8.66 4.68 9.32 4 10 C2.68 10 1.36 10 0 10 C0 6.7 0 3.4 0 0 Z " fill="#53A6E2" transform="translate(294,352)"/>
<path d="M0 0 C0.99 0 1.98 0 3 0 C3.66 0.99 4.32 1.98 5 3 C5.33 2.01 5.66 1.02 6 0 C6.66 0 7.32 0 8 0 C8 3.3 8 6.6 8 10 C7.34 9.34 6.68 8.68 6 8 C5.34 8.66 4.68 9.32 4 10 C2.68 10 1.36 10 0 10 C0 6.7 0 3.4 0 0 Z " fill="#53A6E2" transform="translate(215,352)"/>
<path d="M0 0 C0.66 0 1.32 0 2 0 C2 0.66 2 1.32 2 2 C2.804375 1.979375 3.60875 1.95875 4.4375 1.9375 C7 2 7 2 8 3 C8.04092937 5.33297433 8.04241723 7.66705225 8 10 C7.34 10 6.68 10 6 10 C6 8.02 6 6.04 6 4 C5.34 4 4.68 4 4 4 C4 5.98 4 7.96 4 10 C2.68 10 1.36 10 0 10 C0 6.7 0 3.4 0 0 Z " fill="#92C7ED" transform="translate(181,352)"/>
<path d="M0 0 C0.33 0.99 0.66 1.98 1 3 C1.66 3 2.32 3 3 3 C3.33 2.01 3.66 1.02 4 0 C4.66 0 5.32 0 6 0 C6 1.32 6 2.64 6 4 C6.99 4 7.98 4 9 4 C9 4.66 9 5.32 9 6 C7.52168779 6.19412181 6.04230684 6.38012131 4.5625 6.5625 C3.73878906 6.66691406 2.91507813 6.77132813 2.06640625 6.87890625 C1.38449219 6.91886719 0.70257813 6.95882813 0 7 C-1 6 -1 6 -1.125 3.5 C-1 1 -1 1 0 0 Z " fill="#DAECF9" transform="translate(197,355)"/>
<path d="M0 0 C2.375 0.75 2.375 0.75 5 2 C5.66 3.32 6.32 4.64 7 6 C3.04 6 -0.92 6 -5 6 C-3.35 4.02 -1.7 2.04 0 0 Z " fill="#3E4043" transform="translate(177,267)"/>
<path d="M0 0 C1 2 1 2 1.125 5.875 C1.40266676 8.55424063 1.56477556 9.62035844 3.62109375 11.4140625 C5.7682375 12.6568739 5.7682375 12.6568739 9 14 C7 15 7 15 4.8359375 14.44140625 C4.02382813 14.15136719 3.21171875 13.86132812 2.375 13.5625 C1.55773437 13.27503906 0.74046875 12.98757812 -0.1015625 12.69140625 C-0.72804688 12.46324219 -1.35453125 12.23507813 -2 12 C-2.05422947 10.5629191 -2.09289723 9.12524538 -2.125 7.6875 C-2.14820313 6.88699219 -2.17140625 6.08648437 -2.1953125 5.26171875 C-2 3 -2 3 0 0 Z " fill="#D4D9DE" transform="translate(279,224)"/>
<path d="M0 0 C2.0625 0.4375 2.0625 0.4375 4 1 C4 3.31 4 5.62 4 8 C2.35 7.67 0.7 7.34 -1 7 C-1.04254356 5.00045254 -1.04080783 2.99958364 -1 1 C-0.67 0.67 -0.34 0.34 0 0 Z " fill="#70B5E7" transform="translate(279,354)"/>
<path d="M0 0 C2.0625 0.4375 2.0625 0.4375 4 1 C4 2.98 4 4.96 4 7 C2.35 7.33 0.7 7.66 -1 8 C-1.04241723 5.66705225 -1.04092937 3.33297433 -1 1 C-0.67 0.67 -0.34 0.34 0 0 Z " fill="#6BB3E6" transform="translate(305,354)"/>
<path d="M0 0 C2.0625 0.4375 2.0625 0.4375 4 1 C4 2.98 4 4.96 4 7 C2.35 7.33 0.7 7.66 -1 8 C-1.04241723 5.66705225 -1.04092937 3.33297433 -1 1 C-0.67 0.67 -0.34 0.34 0 0 Z " fill="#6BB3E6" transform="translate(226,354)"/>
<path d="M0 0 C2.31 0 4.62 0 7 0 C7 0.66 7 1.32 7 2 C6.01 2 5.02 2 4 2 C4 2.66 4 3.32 4 4 C4.99 4 5.98 4 7 4 C7 5.32 7 6.64 7 8 C5.68 7.67 4.36 7.34 3 7 C3.99 7 4.98 7 6 7 C6 6.34 6 5.68 6 5 C4.68 4.67 3.36 4.34 2 4 C1.34 5.32 0.68 6.64 0 8 C0 5.36 0 2.72 0 0 Z " fill="#51A5E2" transform="translate(267,354)"/>
<path d="M0 0 C1.65 0 3.3 0 5 0 C4.01 0.33 3.02 0.66 2 1 C2 1.99 2 2.98 2 4 C2.99 4 3.98 4 5 4 C5 4.66 5 5.32 5 6 C4.01 6 3.02 6 2 6 C2 6.99 2 7.98 2 9 C2.99 9.33 3.98 9.66 5 10 C3.35 10 1.7 10 0 10 C0 6.7 0 3.4 0 0 Z " fill="#3E9BDF" transform="translate(248,352)"/>
<path d="M0 0 C5.94 0.99 5.94 0.99 12 2 C12.33 2.99 12.66 3.98 13 5 C7.73946963 5.31563182 4.55426184 4.66590937 0 2 C0 1.34 0 0.68 0 0 Z " fill="#4C4C4E" transform="translate(272,206)"/>
<path d="M0 0 C2.0625 0.4375 2.0625 0.4375 4 1 C4 2.32 4 3.64 4 5 C2.68 5 1.36 5 0 5 C0 5.66 0 6.32 0 7 C0.99 7.33 1.98 7.66 3 8 C1.68 8 0.36 8 -1 8 C-1.04241723 5.66705225 -1.04092937 3.33297433 -1 1 C-0.67 0.67 -0.34 0.34 0 0 Z " fill="#5AAAE4" transform="translate(316,354)"/>
<path d="M0 0 C2.0625 0.4375 2.0625 0.4375 4 1 C4 2.32 4 3.64 4 5 C2.68 5 1.36 5 0 5 C0 5.66 0 6.32 0 7 C0.99 7.33 1.98 7.66 3 8 C1.68 8 0.36 8 -1 8 C-1.04241723 5.66705225 -1.04092937 3.33297433 -1 1 C-0.67 0.67 -0.34 0.34 0 0 Z " fill="#5AAAE4" transform="translate(237,354)"/>
<path d="M0 0 C1.98 0 3.96 0 6 0 C5.67 1.65 5.34 3.3 5 5 C3.35 5 1.7 5 0 5 C0 3.35 0 1.7 0 0 Z " fill="#C4CACE" transform="translate(299,327)"/>
<path d="M0 0 C0.66 0 1.32 0 2 0 C3.32 2.64 4.64 5.28 6 8 C5.01 8.495 5.01 8.495 4 9 C2 7.875 2 7.875 0 6 C-0.25 2.8125 -0.25 2.8125 0 0 Z " fill="#E3E3E3" transform="translate(289,224)"/>
<path d="M0 0 C0.66 0 1.32 0 2 0 C2 3.3 2 6.6 2 10 C1.34 9.34 0.68 8.68 0 8 C-0.66 8.66 -1.32 9.32 -2 10 C-2.625 7.625 -2.625 7.625 -3 5 C-2.34 4.34 -1.68 3.68 -1 3 C-0.67 2.01 -0.34 1.02 0 0 Z " fill="#2990DC" transform="translate(300,352)"/>
<path d="M0 0 C0.66 0 1.32 0 2 0 C2 3.3 2 6.6 2 10 C1.34 9.34 0.68 8.68 0 8 C-0.66 8.66 -1.32 9.32 -2 10 C-2.625 7.625 -2.625 7.625 -3 5 C-2.34 4.34 -1.68 3.68 -1 3 C-0.67 2.01 -0.34 1.02 0 0 Z " fill="#2990DC" transform="translate(221,352)"/>
<path d="M0 0 C2.475 0.495 2.475 0.495 5 1 C5 3.31 5 5.62 5 8 C4.34 8 3.68 8 3 8 C3 6.02 3 4.04 3 2 C2.34 2 1.68 2 1 2 C1 3.98 1 5.96 1 8 C0.67 8 0.34 8 0 8 C0 5.36 0 2.72 0 0 Z " fill="#49A1E1" transform="translate(285,354)"/>
<path d="M0 0 C0.99 0.33 1.98 0.66 3 1 C3 3.31 3 5.62 3 8 C2.34 8 1.68 8 1 8 C1 6.02 1 4.04 1 2 C0.34 2 -0.32 2 -1 2 C-1 3.98 -1 5.96 -1 8 C-1.33 8 -1.66 8 -2 8 C-2 5.69 -2 3.38 -2 1 C-1.34 0.67 -0.68 0.34 0 0 Z " fill="#419DE0" transform="translate(186,354)"/>
<path d="M0 0 C0.33 0 0.66 0 1 0 C1.50423019 5.29441695 0.18923033 7.81413519 -3 12 C-3.66 11.34 -4.32 10.68 -5 10 C-4.505 9.4225 -4.01 8.845 -3.5 8.25 C-1.63019987 5.89599371 -1.63019987 5.89599371 -2 2 C-1.34 2 -0.68 2 0 2 C0 1.34 0 0.68 0 0 Z " fill="#424245" transform="translate(333,202)"/>
<path d="M0 0 C1.98 0 3.96 0 6 0 C5.67 1.32 5.34 2.64 5 4 C3.35 4 1.7 4 0 4 C0 2.68 0 1.36 0 0 Z " fill="#CBD0D3" transform="translate(299,316)"/>
<path d="M0 0 C6.875 3.75 6.875 3.75 8 6 C6.68 6.33 5.36 6.66 4 7 C0 2.25 0 2.25 0 0 Z " fill="#45494E" transform="translate(320,189)"/>
<path d="M0 0 C0.33 0.99 0.66 1.98 1 3 C1.66 3 2.32 3 3 3 C3.33 2.01 3.66 1.02 4 0 C4 1.32 4 2.64 4 4 C3.01 4 2.02 4 1 4 C1 4.66 1 5.32 1 6 C1.99 6.33 2.98 6.66 4 7 C2.35 6.67 0.7 6.34 -1 6 C-1.042721 4.33388095 -1.04063832 2.66617115 -1 1 C-0.67 0.67 -0.34 0.34 0 0 Z " fill="#3999DE" transform="translate(197,355)"/>
<path d="M0 0 C1.66666667 0 3.33333333 0 5 0 C4.67 2.31 4.34 4.62 4 7 C3.34 7 2.68 7 2 7 C1.34 4.69 0.68 2.38 0 0 Z " fill="#48A0E1" transform="translate(190,355)"/>
<path d="M0 0 C1.32 0 2.64 0 4 0 C4 0.66 4 1.32 4 2 C3.34 2 2.68 2 2 2 C2 3.98 2 5.96 2 8 C1.34 8 0.68 8 0 8 C0 5.36 0 2.72 0 0 Z " fill="#67B0E6" transform="translate(310,354)"/>
<path d="M0 0 C1.32 0 2.64 0 4 0 C4 0.66 4 1.32 4 2 C3.34 2 2.68 2 2 2 C2 3.98 2 5.96 2 8 C1.34 8 0.68 8 0 8 C0 5.36 0 2.72 0 0 Z " fill="#67B0E6" transform="translate(231,354)"/>
<path d="M0 0 C1.65 0 3.3 0 5 0 C5 1.32 5 2.64 5 4 C3.35 4 1.7 4 0 4 C0 2.68 0 1.36 0 0 Z " fill="#E2E4E6" transform="translate(105,317)"/>
<path d="M0 0 C1.65 0 3.3 0 5 0 C5.33 0.99 5.66 1.98 6 3 C4.02 3 2.04 3 0 3 C0 2.01 0 1.02 0 0 Z " fill="#CED3D5" transform="translate(169,328)"/>
</svg>
